<mxfile host="app.diagrams.net" agent="Mozilla/5.0 (Windows NT 10.0; Win64; x64) AppleWebKit/537.36 (KHTML, like Gecko) Chrome/133.0.0.0 Safari/537.36 Edg/133.0.0.0" version="26.0.16">
  <diagram id="C5RBs43oDa-KdzZeNtuy" name="Page-1">
    <mxGraphModel dx="1160" dy="685" grid="0" gridSize="10" guides="1" tooltips="1" connect="1" arrows="1" fold="1" page="1" pageScale="1" pageWidth="827" pageHeight="1169" math="0" shadow="0">
      <root>
        <mxCell id="WIyWlLk6GJQsqaUBKTNV-0" />
        <mxCell id="WIyWlLk6GJQsqaUBKTNV-1" parent="WIyWlLk6GJQsqaUBKTNV-0" />
        <mxCell id="Ml0Y1lIsqMJPPoEARUl--29" style="edgeStyle=orthogonalEdgeStyle;rounded=0;orthogonalLoop=1;jettySize=auto;html=1;endArrow=none;endFill=0;entryX=1;entryY=0.5;entryDx=0;entryDy=0;startFill=0;" parent="WIyWlLk6GJQsqaUBKTNV-1" source="9PrO4wMIS41E5aJaGwnS-3" target="FAtzjwXxaEBkjEPme7Dd-24" edge="1">
          <mxGeometry relative="1" as="geometry">
            <mxPoint x="805" y="513" as="targetPoint" />
          </mxGeometry>
        </mxCell>
        <mxCell id="Ml0Y1lIsqMJPPoEARUl--38" style="edgeStyle=orthogonalEdgeStyle;rounded=0;orthogonalLoop=1;jettySize=auto;html=1;endArrow=ERmany;endFill=0;entryX=0.5;entryY=0;entryDx=0;entryDy=0;startFill=0;startArrow=ERmandOne;" parent="WIyWlLk6GJQsqaUBKTNV-1" source="9PrO4wMIS41E5aJaGwnS-3" target="FAtzjwXxaEBkjEPme7Dd-30" edge="1">
          <mxGeometry relative="1" as="geometry">
            <Array as="points">
              <mxPoint x="900" y="593" />
            </Array>
            <mxPoint x="991" y="580" as="targetPoint" />
          </mxGeometry>
        </mxCell>
        <mxCell id="Ml0Y1lIsqMJPPoEARUl--43" style="edgeStyle=orthogonalEdgeStyle;rounded=0;orthogonalLoop=1;jettySize=auto;html=1;endArrow=ERmany;endFill=0;entryX=0.5;entryY=1;entryDx=0;entryDy=0;exitX=0.5;exitY=0;exitDx=0;exitDy=0;startFill=0;startArrow=ERmandOne;" parent="WIyWlLk6GJQsqaUBKTNV-1" source="9PrO4wMIS41E5aJaGwnS-3" target="FAtzjwXxaEBkjEPme7Dd-11" edge="1">
          <mxGeometry relative="1" as="geometry">
            <mxPoint x="897" y="360" as="targetPoint" />
          </mxGeometry>
        </mxCell>
        <mxCell id="FAtzjwXxaEBkjEPme7Dd-39" style="edgeStyle=orthogonalEdgeStyle;rounded=0;orthogonalLoop=1;jettySize=auto;html=1;entryX=0;entryY=0.5;entryDx=0;entryDy=0;endArrow=ERmany;endFill=0;" parent="WIyWlLk6GJQsqaUBKTNV-1" source="9PrO4wMIS41E5aJaGwnS-3" target="FAtzjwXxaEBkjEPme7Dd-36" edge="1">
          <mxGeometry relative="1" as="geometry" />
        </mxCell>
        <mxCell id="FAtzjwXxaEBkjEPme7Dd-73" style="edgeStyle=orthogonalEdgeStyle;rounded=0;orthogonalLoop=1;jettySize=auto;html=1;entryX=0.5;entryY=0;entryDx=0;entryDy=0;endArrow=ERmandOne;startFill=0;startArrow=ERmany;endFill=0;" parent="WIyWlLk6GJQsqaUBKTNV-1" source="9PrO4wMIS41E5aJaGwnS-3" target="FAtzjwXxaEBkjEPme7Dd-72" edge="1">
          <mxGeometry relative="1" as="geometry">
            <Array as="points">
              <mxPoint x="936" y="536" />
              <mxPoint x="1058" y="536" />
              <mxPoint x="1058" y="593" />
            </Array>
          </mxGeometry>
        </mxCell>
        <mxCell id="9PrO4wMIS41E5aJaGwnS-3" value="Account" style="whiteSpace=wrap;html=1;align=center;" parent="WIyWlLk6GJQsqaUBKTNV-1" vertex="1">
          <mxGeometry x="847" y="460" width="100" height="40" as="geometry" />
        </mxCell>
        <mxCell id="FAtzjwXxaEBkjEPme7Dd-42" style="edgeStyle=orthogonalEdgeStyle;rounded=0;orthogonalLoop=1;jettySize=auto;html=1;entryX=0.5;entryY=0;entryDx=0;entryDy=0;endArrow=ERmany;endFill=0;startFill=0;startArrow=ERmandOne;" parent="WIyWlLk6GJQsqaUBKTNV-1" source="Ml0Y1lIsqMJPPoEARUl--0" target="FAtzjwXxaEBkjEPme7Dd-41" edge="1">
          <mxGeometry relative="1" as="geometry" />
        </mxCell>
        <mxCell id="Ml0Y1lIsqMJPPoEARUl--0" value="Authority" style="whiteSpace=wrap;html=1;align=center;" parent="WIyWlLk6GJQsqaUBKTNV-1" vertex="1">
          <mxGeometry x="1169" y="206" width="100" height="40" as="geometry" />
        </mxCell>
        <mxCell id="FAtzjwXxaEBkjEPme7Dd-45" value="" style="edgeStyle=orthogonalEdgeStyle;rounded=0;orthogonalLoop=1;jettySize=auto;html=1;endArrow=ERmandOne;startFill=0;endFill=0;startArrow=ERmany;" parent="WIyWlLk6GJQsqaUBKTNV-1" source="Ml0Y1lIsqMJPPoEARUl--4" target="FAtzjwXxaEBkjEPme7Dd-27" edge="1">
          <mxGeometry relative="1" as="geometry" />
        </mxCell>
        <mxCell id="Ml0Y1lIsqMJPPoEARUl--4" value="Comment" style="shape=ext;margin=3;double=1;whiteSpace=wrap;html=1;align=center;" parent="WIyWlLk6GJQsqaUBKTNV-1" vertex="1">
          <mxGeometry x="684" y="611" width="100" height="40" as="geometry" />
        </mxCell>
        <mxCell id="Ml0Y1lIsqMJPPoEARUl--27" style="edgeStyle=orthogonalEdgeStyle;rounded=0;orthogonalLoop=1;jettySize=auto;html=1;exitX=0;exitY=0.5;exitDx=0;exitDy=0;endArrow=ERmany;endFill=0;entryX=1;entryY=0.5;entryDx=0;entryDy=0;startFill=0;startArrow=ERmandOne;" parent="WIyWlLk6GJQsqaUBKTNV-1" source="Ml0Y1lIsqMJPPoEARUl--14" target="FAtzjwXxaEBkjEPme7Dd-21" edge="1">
          <mxGeometry relative="1" as="geometry">
            <mxPoint x="450" y="485" as="targetPoint" />
          </mxGeometry>
        </mxCell>
        <mxCell id="FAtzjwXxaEBkjEPme7Dd-3" style="edgeStyle=orthogonalEdgeStyle;rounded=0;orthogonalLoop=1;jettySize=auto;html=1;entryX=0.5;entryY=1;entryDx=0;entryDy=0;endArrow=ERmany;endFill=0;startFill=0;startArrow=ERmandOne;" parent="WIyWlLk6GJQsqaUBKTNV-1" source="Ml0Y1lIsqMJPPoEARUl--14" target="FAtzjwXxaEBkjEPme7Dd-2" edge="1">
          <mxGeometry relative="1" as="geometry">
            <mxPoint x="407" y="370" as="targetPoint" />
            <Array as="points">
              <mxPoint x="537" y="415" />
              <mxPoint x="462" y="415" />
            </Array>
          </mxGeometry>
        </mxCell>
        <mxCell id="FAtzjwXxaEBkjEPme7Dd-12" style="edgeStyle=orthogonalEdgeStyle;rounded=0;orthogonalLoop=1;jettySize=auto;html=1;entryX=0.5;entryY=1;entryDx=0;entryDy=0;endArrow=ERmany;endFill=0;startFill=0;startArrow=ERmandOne;" parent="WIyWlLk6GJQsqaUBKTNV-1" source="Ml0Y1lIsqMJPPoEARUl--14" target="FAtzjwXxaEBkjEPme7Dd-10" edge="1">
          <mxGeometry relative="1" as="geometry" />
        </mxCell>
        <mxCell id="FAtzjwXxaEBkjEPme7Dd-38" style="edgeStyle=orthogonalEdgeStyle;rounded=0;orthogonalLoop=1;jettySize=auto;html=1;entryX=0.5;entryY=0;entryDx=0;entryDy=0;endArrow=ERmany;endFill=0;startFill=0;startArrow=ERmandOne;" parent="WIyWlLk6GJQsqaUBKTNV-1" source="Ml0Y1lIsqMJPPoEARUl--14" target="FAtzjwXxaEBkjEPme7Dd-27" edge="1">
          <mxGeometry relative="1" as="geometry" />
        </mxCell>
        <mxCell id="Ml0Y1lIsqMJPPoEARUl--14" value="Post" style="whiteSpace=wrap;html=1;align=center;" parent="WIyWlLk6GJQsqaUBKTNV-1" vertex="1">
          <mxGeometry x="517" y="460" width="100" height="40" as="geometry" />
        </mxCell>
        <mxCell id="FAtzjwXxaEBkjEPme7Dd-16" style="edgeStyle=orthogonalEdgeStyle;rounded=0;orthogonalLoop=1;jettySize=auto;html=1;entryX=0.5;entryY=0;entryDx=0;entryDy=0;endArrow=ERmany;endFill=0;startFill=0;startArrow=ERmandOne;" parent="WIyWlLk6GJQsqaUBKTNV-1" source="Ml0Y1lIsqMJPPoEARUl--16" target="FAtzjwXxaEBkjEPme7Dd-17" edge="1">
          <mxGeometry relative="1" as="geometry">
            <mxPoint x="203.11460876464844" y="473" as="targetPoint" />
          </mxGeometry>
        </mxCell>
        <mxCell id="Ml0Y1lIsqMJPPoEARUl--16" value="Category" style="whiteSpace=wrap;html=1;align=center;" parent="WIyWlLk6GJQsqaUBKTNV-1" vertex="1">
          <mxGeometry x="227" y="170" width="100" height="40" as="geometry" />
        </mxCell>
        <mxCell id="Ml0Y1lIsqMJPPoEARUl--33" value="Post_category" style="shape=ext;margin=3;double=1;whiteSpace=wrap;html=1;align=center;" parent="WIyWlLk6GJQsqaUBKTNV-1" vertex="1">
          <mxGeometry x="227" y="460" width="100" height="40" as="geometry" />
        </mxCell>
        <mxCell id="Ml0Y1lIsqMJPPoEARUl--37" value="Tag" style="shape=ext;margin=3;double=1;whiteSpace=wrap;html=1;align=center;" parent="WIyWlLk6GJQsqaUBKTNV-1" vertex="1">
          <mxGeometry x="412" y="170" width="100" height="40" as="geometry" />
        </mxCell>
        <mxCell id="FAtzjwXxaEBkjEPme7Dd-7" style="edgeStyle=orthogonalEdgeStyle;rounded=0;orthogonalLoop=1;jettySize=auto;html=1;entryX=0.5;entryY=0;entryDx=0;entryDy=0;endArrow=ERmany;endFill=0;startFill=0;startArrow=ERmandOne;" parent="WIyWlLk6GJQsqaUBKTNV-1" source="Ml0Y1lIsqMJPPoEARUl--40" target="FAtzjwXxaEBkjEPme7Dd-5" edge="1">
          <mxGeometry relative="1" as="geometry" />
        </mxCell>
        <mxCell id="Ml0Y1lIsqMJPPoEARUl--40" value="Emoji" style="whiteSpace=wrap;html=1;align=center;" parent="WIyWlLk6GJQsqaUBKTNV-1" vertex="1">
          <mxGeometry x="684" y="85" width="100" height="40" as="geometry" />
        </mxCell>
        <mxCell id="Ml0Y1lIsqMJPPoEARUl--41" value="Interact" style="shape=ext;margin=3;double=1;whiteSpace=wrap;html=1;align=center;" parent="WIyWlLk6GJQsqaUBKTNV-1" vertex="1">
          <mxGeometry x="684" y="298" width="100" height="40" as="geometry" />
        </mxCell>
        <mxCell id="Ml0Y1lIsqMJPPoEARUl--45" value="Account_authority" style="shape=ext;margin=3;double=1;whiteSpace=wrap;html=1;align=center;" parent="WIyWlLk6GJQsqaUBKTNV-1" vertex="1">
          <mxGeometry x="1154" y="460" width="130" height="40" as="geometry" />
        </mxCell>
        <mxCell id="FAtzjwXxaEBkjEPme7Dd-4" style="edgeStyle=orthogonalEdgeStyle;rounded=0;orthogonalLoop=1;jettySize=auto;html=1;entryX=0.5;entryY=1;entryDx=0;entryDy=0;endArrow=ERmany;endFill=0;startFill=0;startArrow=ERmandOne;" parent="WIyWlLk6GJQsqaUBKTNV-1" source="FAtzjwXxaEBkjEPme7Dd-2" target="Ml0Y1lIsqMJPPoEARUl--37" edge="1">
          <mxGeometry relative="1" as="geometry" />
        </mxCell>
        <mxCell id="FAtzjwXxaEBkjEPme7Dd-2" value="Has" style="shape=rhombus;double=1;perimeter=rhombusPerimeter;whiteSpace=wrap;html=1;align=center;" parent="WIyWlLk6GJQsqaUBKTNV-1" vertex="1">
          <mxGeometry x="425" y="312" width="74" height="60" as="geometry" />
        </mxCell>
        <mxCell id="FAtzjwXxaEBkjEPme7Dd-6" style="edgeStyle=orthogonalEdgeStyle;rounded=0;orthogonalLoop=1;jettySize=auto;html=1;entryX=0.5;entryY=0;entryDx=0;entryDy=0;endArrow=ERmany;endFill=0;startFill=0;startArrow=ERmandOne;" parent="WIyWlLk6GJQsqaUBKTNV-1" source="FAtzjwXxaEBkjEPme7Dd-5" target="Ml0Y1lIsqMJPPoEARUl--41" edge="1">
          <mxGeometry relative="1" as="geometry" />
        </mxCell>
        <mxCell id="FAtzjwXxaEBkjEPme7Dd-5" value="By" style="shape=rhombus;double=1;perimeter=rhombusPerimeter;whiteSpace=wrap;html=1;align=center;" parent="WIyWlLk6GJQsqaUBKTNV-1" vertex="1">
          <mxGeometry x="693" y="175" width="82" height="73" as="geometry" />
        </mxCell>
        <mxCell id="FAtzjwXxaEBkjEPme7Dd-13" style="edgeStyle=orthogonalEdgeStyle;rounded=0;orthogonalLoop=1;jettySize=auto;html=1;entryX=0;entryY=0.5;entryDx=0;entryDy=0;exitX=0.5;exitY=0;exitDx=0;exitDy=0;endArrow=ERmany;endFill=0;startFill=0;startArrow=ERmandOne;" parent="WIyWlLk6GJQsqaUBKTNV-1" source="FAtzjwXxaEBkjEPme7Dd-10" target="Ml0Y1lIsqMJPPoEARUl--41" edge="1">
          <mxGeometry relative="1" as="geometry" />
        </mxCell>
        <mxCell id="FAtzjwXxaEBkjEPme7Dd-10" value="Has" style="shape=rhombus;double=1;perimeter=rhombusPerimeter;whiteSpace=wrap;html=1;align=center;" parent="WIyWlLk6GJQsqaUBKTNV-1" vertex="1">
          <mxGeometry x="521" y="340" width="92" height="77" as="geometry" />
        </mxCell>
        <mxCell id="FAtzjwXxaEBkjEPme7Dd-14" style="edgeStyle=orthogonalEdgeStyle;rounded=0;orthogonalLoop=1;jettySize=auto;html=1;entryX=1;entryY=0.5;entryDx=0;entryDy=0;exitX=0.5;exitY=0;exitDx=0;exitDy=0;endArrow=ERmany;endFill=0;startFill=0;startArrow=ERmandOne;" parent="WIyWlLk6GJQsqaUBKTNV-1" source="FAtzjwXxaEBkjEPme7Dd-11" target="Ml0Y1lIsqMJPPoEARUl--41" edge="1">
          <mxGeometry relative="1" as="geometry" />
        </mxCell>
        <mxCell id="FAtzjwXxaEBkjEPme7Dd-11" value="Own" style="shape=rhombus;double=1;perimeter=rhombusPerimeter;whiteSpace=wrap;html=1;align=center;" parent="WIyWlLk6GJQsqaUBKTNV-1" vertex="1">
          <mxGeometry x="853" y="340" width="88" height="76" as="geometry" />
        </mxCell>
        <mxCell id="FAtzjwXxaEBkjEPme7Dd-18" style="edgeStyle=orthogonalEdgeStyle;rounded=0;orthogonalLoop=1;jettySize=auto;html=1;entryX=0.5;entryY=0;entryDx=0;entryDy=0;endArrow=ERmany;endFill=0;startFill=0;startArrow=ERmandOne;" parent="WIyWlLk6GJQsqaUBKTNV-1" source="FAtzjwXxaEBkjEPme7Dd-17" target="Ml0Y1lIsqMJPPoEARUl--33" edge="1">
          <mxGeometry relative="1" as="geometry" />
        </mxCell>
        <mxCell id="FAtzjwXxaEBkjEPme7Dd-17" value="Contain" style="shape=rhombus;double=1;perimeter=rhombusPerimeter;whiteSpace=wrap;html=1;align=center;" parent="WIyWlLk6GJQsqaUBKTNV-1" vertex="1">
          <mxGeometry x="233" y="304" width="88" height="76" as="geometry" />
        </mxCell>
        <mxCell id="FAtzjwXxaEBkjEPme7Dd-23" style="edgeStyle=orthogonalEdgeStyle;rounded=0;orthogonalLoop=1;jettySize=auto;html=1;entryX=1;entryY=0.5;entryDx=0;entryDy=0;endArrow=ERmandOne;endFill=0;startFill=0;startArrow=ERmany;" parent="WIyWlLk6GJQsqaUBKTNV-1" source="FAtzjwXxaEBkjEPme7Dd-21" target="Ml0Y1lIsqMJPPoEARUl--33" edge="1">
          <mxGeometry relative="1" as="geometry" />
        </mxCell>
        <mxCell id="FAtzjwXxaEBkjEPme7Dd-21" value="Has" style="shape=rhombus;double=1;perimeter=rhombusPerimeter;whiteSpace=wrap;html=1;align=center;" parent="WIyWlLk6GJQsqaUBKTNV-1" vertex="1">
          <mxGeometry x="381" y="442" width="88" height="76" as="geometry" />
        </mxCell>
        <mxCell id="FAtzjwXxaEBkjEPme7Dd-26" style="edgeStyle=orthogonalEdgeStyle;rounded=0;orthogonalLoop=1;jettySize=auto;html=1;endArrow=ERmandOne;endFill=0;startFill=0;startArrow=ERmany;" parent="WIyWlLk6GJQsqaUBKTNV-1" source="FAtzjwXxaEBkjEPme7Dd-24" target="Ml0Y1lIsqMJPPoEARUl--14" edge="1">
          <mxGeometry relative="1" as="geometry" />
        </mxCell>
        <mxCell id="FAtzjwXxaEBkjEPme7Dd-24" value="Has" style="shape=rhombus;double=1;perimeter=rhombusPerimeter;whiteSpace=wrap;html=1;align=center;" parent="WIyWlLk6GJQsqaUBKTNV-1" vertex="1">
          <mxGeometry x="690" y="442" width="88" height="76" as="geometry" />
        </mxCell>
        <mxCell id="FAtzjwXxaEBkjEPme7Dd-27" value="Has" style="shape=rhombus;double=1;perimeter=rhombusPerimeter;whiteSpace=wrap;html=1;align=center;" parent="WIyWlLk6GJQsqaUBKTNV-1" vertex="1">
          <mxGeometry x="523" y="593" width="88" height="76" as="geometry" />
        </mxCell>
        <mxCell id="FAtzjwXxaEBkjEPme7Dd-31" style="edgeStyle=orthogonalEdgeStyle;rounded=0;orthogonalLoop=1;jettySize=auto;html=1;entryX=1;entryY=0.5;entryDx=0;entryDy=0;endArrow=ERmany;endFill=0;startFill=0;startArrow=ERmandOne;" parent="WIyWlLk6GJQsqaUBKTNV-1" source="FAtzjwXxaEBkjEPme7Dd-30" target="Ml0Y1lIsqMJPPoEARUl--4" edge="1">
          <mxGeometry relative="1" as="geometry" />
        </mxCell>
        <mxCell id="FAtzjwXxaEBkjEPme7Dd-30" value="Write" style="shape=rhombus;double=1;perimeter=rhombusPerimeter;whiteSpace=wrap;html=1;align=center;" parent="WIyWlLk6GJQsqaUBKTNV-1" vertex="1">
          <mxGeometry x="857" y="593" width="88" height="76" as="geometry" />
        </mxCell>
        <mxCell id="FAtzjwXxaEBkjEPme7Dd-40" style="edgeStyle=orthogonalEdgeStyle;rounded=0;orthogonalLoop=1;jettySize=auto;html=1;entryX=0;entryY=0.5;entryDx=0;entryDy=0;endArrow=ERmany;endFill=0;startFill=0;" parent="WIyWlLk6GJQsqaUBKTNV-1" source="FAtzjwXxaEBkjEPme7Dd-36" target="Ml0Y1lIsqMJPPoEARUl--45" edge="1">
          <mxGeometry relative="1" as="geometry" />
        </mxCell>
        <mxCell id="FAtzjwXxaEBkjEPme7Dd-36" value="Own" style="shape=rhombus;double=1;perimeter=rhombusPerimeter;whiteSpace=wrap;html=1;align=center;" parent="WIyWlLk6GJQsqaUBKTNV-1" vertex="1">
          <mxGeometry x="1018" y="442" width="88" height="76" as="geometry" />
        </mxCell>
        <mxCell id="FAtzjwXxaEBkjEPme7Dd-43" style="edgeStyle=orthogonalEdgeStyle;rounded=0;orthogonalLoop=1;jettySize=auto;html=1;endArrow=ERmany;endFill=0;startFill=0;startArrow=ERmandOne;" parent="WIyWlLk6GJQsqaUBKTNV-1" source="FAtzjwXxaEBkjEPme7Dd-41" target="Ml0Y1lIsqMJPPoEARUl--45" edge="1">
          <mxGeometry relative="1" as="geometry" />
        </mxCell>
        <mxCell id="FAtzjwXxaEBkjEPme7Dd-41" value="Lience" style="shape=rhombus;double=1;perimeter=rhombusPerimeter;whiteSpace=wrap;html=1;align=center;" parent="WIyWlLk6GJQsqaUBKTNV-1" vertex="1">
          <mxGeometry x="1175" y="321.5" width="88" height="76" as="geometry" />
        </mxCell>
        <mxCell id="FAtzjwXxaEBkjEPme7Dd-70" value="Role" style="whiteSpace=wrap;html=1;align=center;" parent="WIyWlLk6GJQsqaUBKTNV-1" vertex="1">
          <mxGeometry x="1175" y="611" width="88" height="40" as="geometry" />
        </mxCell>
        <mxCell id="FAtzjwXxaEBkjEPme7Dd-74" style="edgeStyle=orthogonalEdgeStyle;rounded=0;orthogonalLoop=1;jettySize=auto;html=1;entryX=0;entryY=0.5;entryDx=0;entryDy=0;endArrow=ERmandOne;startFill=0;endFill=0;startArrow=ERmany;" parent="WIyWlLk6GJQsqaUBKTNV-1" source="FAtzjwXxaEBkjEPme7Dd-72" target="FAtzjwXxaEBkjEPme7Dd-70" edge="1">
          <mxGeometry relative="1" as="geometry" />
        </mxCell>
        <mxCell id="FAtzjwXxaEBkjEPme7Dd-72" value="Has" style="shape=rhombus;double=1;perimeter=rhombusPerimeter;whiteSpace=wrap;html=1;align=center;" parent="WIyWlLk6GJQsqaUBKTNV-1" vertex="1">
          <mxGeometry x="1013" y="593" width="88" height="76" as="geometry" />
        </mxCell>
      </root>
    </mxGraphModel>
  </diagram>
</mxfile>
